<svg width="156" height="48" viewBox="0 0 156 48" fill="none" xmlns="http://www.w3.org/2000/svg">
<path fill-rule="evenodd" clip-rule="evenodd" d="M82.2175 12.0601C82.2175 13.7898 80.8042 15.1832 79.0498 15.1832C77.2954 15.1832 75.8821 13.7898 75.8821 12.0601C75.8821 10.3303 77.2467 8.93694 79.0498 8.93694C80.8529 8.98499 82.2175 10.3784 82.2175 12.0601ZM69.1569 18.3544C69.1569 18.6426 69.1569 19.1231 69.1569 19.1231C69.1569 19.1231 67.6462 17.2012 64.4297 17.2012C59.1178 17.2012 54.9755 21.1892 54.9755 26.7147C54.9755 32.1922 59.0691 36.2282 64.4297 36.2282C67.6949 36.2282 69.1569 34.2583 69.1569 34.2583V35.0751C69.1569 35.4595 69.4493 35.7477 69.8392 35.7477H73.7866V17.6817C73.7866 17.6817 70.1803 17.6817 69.8392 17.6817C69.4493 17.6817 69.1569 18.018 69.1569 18.3544ZM69.1569 29.9339C68.4259 30.991 66.9639 31.9039 65.2095 31.9039C62.0905 31.9039 59.7026 29.982 59.7026 26.7147C59.7026 23.4474 62.0905 21.5255 65.2095 21.5255C66.9152 21.5255 68.4746 22.4865 69.1569 23.4955V29.9339ZM76.7106 17.6817H81.389V35.7477H76.7106V17.6817ZM146.594 17.2012C143.378 17.2012 141.867 19.1231 141.867 19.1231V8.98499H137.189V35.7477C137.189 35.7477 140.795 35.7477 141.136 35.7477C141.526 35.7477 141.819 35.4114 141.819 35.0751V34.2583C141.819 34.2583 143.329 36.2282 146.546 36.2282C151.858 36.2282 156 32.1922 156 26.7147C156 21.2372 151.858 17.2012 146.594 17.2012ZM145.815 31.8559C144.012 31.8559 142.598 30.9429 141.867 29.8859V23.4474C142.598 22.4865 144.158 21.4775 145.815 21.4775C148.934 21.4775 151.322 23.3994 151.322 26.6667C151.322 29.9339 148.934 31.8559 145.815 31.8559ZM134.752 25.033V35.7958H130.074V25.5616C130.074 22.5826 129.099 21.3814 126.467 21.3814C125.054 21.3814 123.592 22.1021 122.666 23.1592V35.7477H117.988V17.6817H121.692C122.081 17.6817 122.374 18.018 122.374 18.3544V19.1231C123.738 17.7297 125.542 17.2012 127.345 17.2012C129.392 17.2012 131.097 17.7778 132.462 18.9309C134.119 20.2763 134.752 22.006 134.752 25.033ZM106.633 17.2012C103.417 17.2012 101.906 19.1231 101.906 19.1231V8.98499H97.2274V35.7477C97.2274 35.7477 100.834 35.7477 101.175 35.7477C101.565 35.7477 101.857 35.4114 101.857 35.0751V34.2583C101.857 34.2583 103.368 36.2282 106.584 36.2282C111.896 36.2282 116.039 32.1922 116.039 26.7147C116.087 21.2372 111.945 17.2012 106.633 17.2012ZM105.853 31.8559C104.05 31.8559 102.637 30.9429 101.906 29.8859V23.4474C102.637 22.4865 104.196 21.4775 105.853 21.4775C108.972 21.4775 111.36 23.3994 111.36 26.6667C111.36 29.9339 108.972 31.8559 105.853 31.8559ZM93.1825 17.2012C94.5958 17.2012 95.3268 17.4414 95.3268 17.4414V21.7177C95.3268 21.7177 91.4281 20.4204 88.9914 23.1592V35.7958H84.313V17.6817C84.313 17.6817 87.9193 17.6817 88.2604 17.6817C88.6503 17.6817 88.9427 18.018 88.9427 18.3544V19.1231C89.8199 18.1141 91.7205 17.2012 93.1825 17.2012ZM44.5952 34.1141C44.3515 33.5375 44.1079 32.9129 43.8642 32.3844C43.4743 31.5195 43.0845 30.7027 42.7433 29.9339L42.6946 29.8859C39.332 22.6787 35.7257 15.3754 31.9245 8.16817L31.7783 7.87988C31.3884 7.15916 30.9986 6.39039 30.6087 5.62162C30.1214 4.75676 29.634 3.84384 28.8543 2.97898C27.2948 1.05706 25.0531 0 22.6651 0C20.2285 0 18.0355 1.05706 16.4273 2.88288C15.6962 3.74775 15.1602 4.66066 14.6728 5.52553C14.283 6.29429 13.8931 7.06306 13.5032 7.78378L13.357 8.07207C9.60456 15.2793 5.94955 22.5826 2.58694 29.7898L2.5382 29.8859C2.19707 30.6547 1.8072 31.4715 1.41733 32.3363C1.17367 32.8649 0.929998 33.4414 0.68633 34.0661C0.0527946 35.8438 -0.142139 37.5255 0.101528 39.2553C0.637597 42.8589 3.07427 45.8859 6.43688 47.2312C7.70395 47.7598 9.01976 48 10.3843 48C10.7742 48 11.2615 47.952 11.6514 47.9039C13.2596 47.7117 14.9165 47.1832 16.5247 46.2703C18.5228 45.1652 20.4234 43.5796 22.5677 41.2733C24.7119 43.5796 26.6613 45.1652 28.6106 46.2703C30.2188 47.1832 31.8758 47.7117 33.484 47.9039C33.8738 47.952 34.3612 48 34.751 48C36.1156 48 37.4801 47.7598 38.6985 47.2312C42.1098 45.8859 44.4977 42.8108 45.0338 39.2553C45.4237 37.5736 45.2288 35.8919 44.5952 34.1141ZM22.6164 36.6126C19.9848 33.3453 18.2791 30.2703 17.6943 27.6757C17.4507 26.5706 17.4019 25.6096 17.5481 24.7447C17.6456 23.976 17.938 23.3033 18.3279 22.7267C19.2538 21.4294 20.8133 20.6126 22.6164 20.6126C24.4195 20.6126 26.0278 21.3814 26.905 22.7267C27.2948 23.3033 27.5872 23.976 27.6847 24.7447C27.8309 25.6096 27.7822 26.6186 27.5385 27.6757C26.9537 30.2222 25.248 33.2973 22.6164 36.6126ZM42.0611 38.8709C41.7199 41.3694 40.0143 43.5315 37.6263 44.4925C36.4567 44.973 35.1896 45.1171 33.9226 44.973C32.7042 44.8288 31.4859 44.4444 30.2188 43.7237C28.4644 42.7628 26.71 41.2733 24.6632 39.0631C27.8796 35.1712 29.829 31.6156 30.56 28.4444C30.9011 26.955 30.9498 25.6096 30.8036 24.3604C30.6087 23.1592 30.1701 22.0541 29.4878 21.0931C27.9771 18.9309 25.4429 17.6817 22.6164 17.6817C19.7899 17.6817 17.2557 18.979 15.745 21.0931C15.0627 22.0541 14.6241 23.1592 14.4292 24.3604C14.2342 25.6096 14.283 27.003 14.6728 28.4444C15.4038 31.6156 17.4019 35.2192 20.5696 39.1111C18.5715 41.3213 16.7684 42.8108 15.014 43.7718C13.7469 44.4925 12.5286 44.8769 11.3102 45.021C9.99443 45.1652 8.72736 44.973 7.60649 44.5405C5.21855 43.5796 3.51287 41.4174 3.17174 38.9189C3.02554 37.7177 3.12301 36.5165 3.61034 35.1712C3.75654 34.6907 4.00021 34.2102 4.24388 33.6336C4.58501 32.8649 4.97488 32.048 5.36475 31.2312L5.41348 31.1351C8.77609 23.976 12.3824 16.6727 16.1348 9.56156L16.281 9.27327C16.6709 8.55255 17.0608 7.78378 17.4507 7.06306C17.8405 6.29429 18.2791 5.57357 18.8152 4.94895C19.8386 3.7958 21.2031 3.17117 22.7139 3.17117C24.2246 3.17117 25.5891 3.7958 26.6126 4.94895C27.1486 5.57357 27.5872 6.29429 27.9771 7.06306C28.367 7.78378 28.7568 8.55255 29.1467 9.27327L29.2929 9.56156C32.9966 16.7207 36.6029 24.024 39.9655 31.1832V31.2312C40.3554 32 40.6965 32.8649 41.0864 33.6336C41.3301 34.2102 41.5737 34.6907 41.7199 35.1712C42.1098 36.4204 42.256 37.6216 42.0611 38.8709Z" fill="#22282B"/>
</svg>
