<svg width="127" height="26" viewBox="0 0 127 26" fill="none" xmlns="http://www.w3.org/2000/svg">
<path d="M90.2134 8.46143H90.9782C99.3029 8.46143 100.281 12.6416 100.281 15.0073V15.541C100.281 17.8712 99.3207 22.1581 90.9782 22.1581H90.2134C81.8353 22.1581 80.8926 17.8712 80.8926 15.541V15.0073C80.8926 12.6416 81.8353 8.46143 90.2134 8.46143ZM95.941 15.3809V15.1319C95.941 13.6199 95.0694 11.6632 90.5869 11.6632C86.0332 11.6632 85.2328 13.6199 85.2328 15.1319V15.3453C85.2328 16.8573 86.1044 18.9385 90.5869 18.9385C95.0338 18.9385 95.941 16.9106 95.941 15.3809Z" fill="#22282B"/>
<path d="M67.6289 8.69287H71.7734V18.6363H80.9697V21.927H67.6289V8.69287Z" fill="#22282B"/>
<path d="M60.1949 16.5195L57.6335 11.5567L55.1788 16.5195H60.1949ZM62.9698 21.927L61.7247 19.5079H53.7024L52.5106 21.927H48.2949L54.9831 8.69287H60.355L67.4345 21.927H62.9698Z" fill="#22282B"/>
<path d="M40.6638 22.1581H39.9345C32.2679 22.1581 31.0762 17.8712 31.0762 15.5232V15.0073C31.0762 12.606 32.1079 8.46143 39.9345 8.46143H40.6638C48.3303 8.46143 49.5221 12.1257 49.5221 13.6733V13.8689H45.1285C45.0218 13.5132 44.4881 11.6632 40.2902 11.6632C36.3236 11.6632 35.4164 13.442 35.4164 15.0963V15.3097C35.4164 16.8751 36.4659 18.9385 40.3258 18.9385C44.6126 18.9385 45.0395 16.8929 45.1463 16.5905H49.5398V16.7861C49.5398 18.4582 48.2235 22.1581 40.6638 22.1581Z" fill="#22282B"/>
<path d="M16.3359 8.69287H30.2815V11.699H20.4271V13.6557H30.0503V16.6796H20.4271V18.8497H30.4594V21.927H16.3359V8.69287Z" fill="#22282B"/>
<path d="M2 8.69287H6.14454V18.6363H15.3408V21.927H2V8.69287Z" fill="#22282B"/>
<path d="M58 5.12804L60.1223 0.461426H63.8354L60.1223 5.12804H58Z" fill="#22282B"/>
<path d="M123.259 22.2776H120.745V9.04919H123.259V22.2776ZM122.068 5.90082C121.116 5.90082 120.349 5.13357 120.349 4.18112C120.349 3.22868 121.116 2.46143 122.068 2.46143C123.021 2.46143 123.788 3.22868 123.788 4.18112C123.788 5.13357 123.021 5.90082 122.068 5.90082Z" fill="#22282B"/>
<path d="M109.424 22.7011C104.847 22.7011 104 18.9971 104 15.1344V9.04932H106.54V18.4415C106.54 21.3253 107.81 22.3042 109.397 22.3042C114.715 22.3042 115.456 12.8856 115.456 9.04932H117.943L117.969 22.2778H115.456V14.5524C114.9 17.7536 113.472 22.7011 109.424 22.7011Z" fill="#22282B"/>
</svg>
